<?xml version="1.0" encoding="UTF-8" standalone="no"?>
<!DOCTYPE svg PUBLIC "-//W3C//DTD SVG 1.1//EN" "http://www.w3.org/Graphics/SVG/1.1/DTD/svg11.dtd">
<svg width="100%" height="100%" viewBox="0 0 559 269" version="1.1" xmlns="http://www.w3.org/2000/svg" xmlns:xlink="http://www.w3.org/1999/xlink" xml:space="preserve" xmlns:serif="http://www.serif.com/" style="fill-rule:evenodd;clip-rule:evenodd;stroke-linejoin:round;stroke-miterlimit:2;">
    <g transform="matrix(1,0,0,1,-969.406,-1186.43)">
        <g transform="matrix(0.572928,0,0,0.572928,353.414,564.333)">
            <path d="M1291.75,1139.96L1291.75,1248.25C1291.75,1278.14 1267.49,1302.4 1237.61,1302.4L1129.31,1302.4C1099.43,1302.4 1075.16,1278.14 1075.16,1248.25L1075.16,1139.96C1075.16,1110.08 1099.43,1085.81 1129.31,1085.81L1237.61,1085.81C1267.49,1085.81 1291.75,1110.08 1291.75,1139.96Z" style="fill:rgb(146,148,245);"/>
        </g>
        <g transform="matrix(0.572928,0,0,0.572928,642.775,564.333)">
            <path d="M1291.75,1139.96L1291.75,1248.25C1291.75,1278.14 1267.49,1302.4 1237.61,1302.4L1129.31,1302.4C1099.43,1302.4 1075.16,1278.14 1075.16,1248.25L1075.16,1139.96C1075.16,1110.08 1099.43,1085.81 1129.31,1085.81L1237.61,1085.81C1267.49,1085.81 1291.75,1110.08 1291.75,1139.96Z" style="fill:rgb(99,102,241);"/>
        </g>
        <g transform="matrix(0.572928,0,0,0.572928,353.414,709.014)">
            <path d="M1291.75,1139.96L1291.75,1248.25C1291.75,1278.14 1267.49,1302.4 1237.61,1302.4L1129.31,1302.4C1099.43,1302.4 1075.16,1278.14 1075.16,1248.25L1075.16,1139.96C1075.16,1110.08 1099.43,1085.81 1129.31,1085.81L1237.61,1085.81C1267.49,1085.81 1291.75,1110.08 1291.75,1139.96Z" style="fill:rgb(146,148,245);"/>
        </g>
        <g transform="matrix(0.572928,0,0,0.572928,642.775,709.014)">
            <path d="M1291.75,1139.96L1291.75,1248.25C1291.75,1278.14 1267.49,1302.4 1237.61,1302.4L1129.31,1302.4C1099.43,1302.4 1075.16,1278.14 1075.16,1248.25L1075.16,1139.96C1075.16,1110.08 1099.43,1085.81 1129.31,1085.81L1237.61,1085.81C1267.49,1085.81 1291.75,1110.08 1291.75,1139.96Z" style="fill:rgb(99,102,241);"/>
        </g>
        <g transform="matrix(0.572928,0,0,0.572928,498.095,564.333)">
            <path d="M1291.75,1139.96L1291.75,1248.25C1291.75,1278.14 1267.49,1302.4 1237.61,1302.4L1129.31,1302.4C1099.43,1302.4 1075.16,1278.14 1075.16,1248.25L1075.16,1139.96C1075.16,1110.08 1099.43,1085.81 1129.31,1085.81L1237.61,1085.81C1267.49,1085.81 1291.75,1110.08 1291.75,1139.96Z" style="fill:rgb(146,148,245);"/>
        </g>
        <g transform="matrix(0.572928,0,0,0.572928,787.456,564.333)">
            <path d="M1291.75,1139.96L1291.75,1248.25C1291.75,1278.14 1267.49,1302.4 1237.61,1302.4L1129.31,1302.4C1099.43,1302.4 1075.16,1278.14 1075.16,1248.25L1075.16,1139.96C1075.16,1110.08 1099.43,1085.81 1129.31,1085.81L1237.61,1085.81C1267.49,1085.81 1291.75,1110.08 1291.75,1139.96Z" style="fill:rgb(74,77,181);"/>
        </g>
        <g transform="matrix(0.572928,0,0,0.572928,498.095,709.014)">
            <path d="M1291.75,1139.96L1291.75,1248.25C1291.75,1278.14 1267.49,1302.4 1237.61,1302.4L1129.31,1302.4C1099.43,1302.4 1075.16,1278.14 1075.16,1248.25L1075.16,1139.96C1075.16,1110.08 1099.43,1085.81 1129.31,1085.81L1237.61,1085.81C1267.49,1085.81 1291.75,1110.08 1291.75,1139.96Z" style="fill:rgb(146,148,245);"/>
        </g>
    </g>
</svg>
